<?xml version="1.0" encoding="utf-8"?>
<!-- Generator: Adobe Illustrator 18.1.0, SVG Export Plug-In . SVG Version: 6.00 Build 0)  -->
<!DOCTYPE svg PUBLIC "-//W3C//DTD SVG 1.1//EN" "http://www.w3.org/Graphics/SVG/1.1/DTD/svg11.dtd">
<svg version="1.1" id="Layer_1" xmlns="http://www.w3.org/2000/svg" xmlns:xlink="http://www.w3.org/1999/xlink" x="0px" y="0px"
	 viewBox="0 0 150 150" enable-background="new 0 0 150 150" xml:space="preserve">
<g id="icomoon-ignore">
</g>
<path fill="#FFFFFF" d="M59.2,96.5c-3,3-9,8.6-19.1,8.6c-12,0-23.3-10.5-23.3-27c0-21.4,13.5-28.1,24-28.1c15,0,18.4,9,22.5,21.8
	L69,89c5.6,16.9,15.8,30.4,45.4,30.4c21.4,0,35.6-6.8,35.6-24c0-13.9-7.9-21.4-22.5-24.7l-10.9-2.3c-7.5-1.9-9.8-4.9-9.8-10.1
	c0-6,4.5-9.4,12.4-9.4c8.3,0,12.8,3,13.5,10.5l17.3-2.2C148.5,41.4,138,35,120.4,35c-15.4,0-30.8,6-30.8,24.7
	c0,11.6,5.6,19.1,19.9,22.9l11.6,2.6c8.6,2.3,11.6,5.6,11.6,10.9c0,6.4-6.4,9-18,9c-17.3,0-26.3-9-30-21.8l-5.6-17.6
	C72,43.3,63.4,35,40.5,35C20.2,35,0.4,51.1,0.4,78.5c0,26.3,19.1,40.5,39,40.5c14.6,0,21.7-5.3,25.5-7.5
	C64.5,111.5,59.2,96.5,59.2,96.5z"/>
</svg>
