<?xml version="1.0" encoding="utf-8"?>
<!-- Generated by IcoMoon.io -->
<!DOCTYPE svg PUBLIC "-//W3C//DTD SVG 1.1//EN" "http://www.w3.org/Graphics/SVG/1.1/DTD/svg11.dtd">
<svg version="1.1" xmlns="http://www.w3.org/2000/svg" xmlns:xlink="http://www.w3.org/1999/xlink" width="40" height="40" viewBox="0 0 40 40">
<g id="icomoon-ignore">
</g>
<path d="M20 0c-11.046 0-20 8.954-20 20s8.954 20 20 20 20-8.954 20-20-8.954-20-20-20zM31.877 31.877c-1.544 1.544-3.34 2.755-5.34 3.601-0.508 0.215-1.024 0.403-1.547 0.566v-2.997c0-1.576-0.54-2.734-1.621-3.477 0.677-0.065 1.299-0.156 1.865-0.273s1.165-0.286 1.797-0.508 1.198-0.485 1.699-0.791 0.983-0.703 1.445-1.191 0.85-1.042 1.162-1.66 0.56-1.361 0.742-2.227 0.273-1.82 0.273-2.861c0-2.018-0.658-3.737-1.973-5.156 0.599-1.563 0.534-3.262-0.195-5.098l-0.488-0.059c-0.339-0.039-0.947 0.104-1.826 0.43s-1.865 0.859-2.959 1.602c-1.549-0.43-3.158-0.645-4.824-0.645-1.68 0-3.281 0.215-4.805 0.645-0.69-0.469-1.344-0.856-1.963-1.162s-1.113-0.514-1.484-0.625-0.716-0.179-1.035-0.205-0.524-0.033-0.615-0.020-0.156 0.026-0.195 0.039c-0.729 1.849-0.794 3.548-0.195 5.098-1.315 1.419-1.973 3.138-1.973 5.156 0 1.042 0.091 1.995 0.273 2.861s0.43 1.608 0.742 2.227 0.7 1.172 1.162 1.66 0.944 0.885 1.445 1.191 1.068 0.57 1.699 0.791 1.23 0.391 1.797 0.508 1.188 0.208 1.865 0.273c-1.068 0.729-1.602 1.888-1.602 3.477v3.056c-0.59-0.176-1.171-0.383-1.742-0.625-2-0.846-3.796-2.057-5.34-3.601s-2.755-3.34-3.601-5.34c-0.875-2.069-1.319-4.268-1.319-6.537s0.444-4.468 1.319-6.537c0.846-2 2.057-3.796 3.601-5.34s3.34-2.755 5.34-3.601c2.069-0.875 4.268-1.319 6.537-1.319s4.468 0.444 6.537 1.319c2 0.846 3.796 2.057 5.34 3.601s2.755 3.34 3.601 5.34c0.875 2.069 1.319 4.268 1.319 6.537s-0.444 4.468-1.319 6.537c-0.846 2-2.057 3.796-3.601 5.34z" fill="#000000"></path>
</svg>
