<?xml version="1.0" encoding="utf-8"?>
<!-- Generator: Adobe Illustrator 18.1.0, SVG Export Plug-In . SVG Version: 6.00 Build 0)  -->
<!DOCTYPE svg PUBLIC "-//W3C//DTD SVG 1.1//EN" "http://www.w3.org/Graphics/SVG/1.1/DTD/svg11.dtd">
<svg version="1.1" id="Layer_1" xmlns="http://www.w3.org/2000/svg" xmlns:xlink="http://www.w3.org/1999/xlink" x="0px" y="0px"
	 viewBox="-24 26 100 100" enable-background="new -24 26 100 100" xml:space="preserve">
<path id="Goodreads" fill="#463020" d="M25.3,94.5c9.7-0.1,16.7-5,20.8-14.6h0.2v14.7c0,1.1-0.1,2.8-0.2,5.1c-0.3,2.4-1.1,5-2.3,7.7
	c-1.3,2.6-3.3,4.8-6.2,6.6c-2.8,2-6.7,3-11.7,3.1c-4.8,0-8.9-1.3-12.3-3.8c-3.4-2.5-5.4-6.5-6-12.1H3.3c0.4,7.2,2.7,12.4,6.9,15.5
	c4.1,3,9.2,4.4,15.5,4.4c6.2,0,11-1.2,14.4-3.5c3.4-2.2,5.9-5,7.4-8.3c1.5-3.3,2.4-6.5,2.7-9.5c0.2-3,0.3-5.2,0.3-6.5V32.7h-4.3
	v13.4h-0.2c-1.6-4.9-4.3-8.6-8.1-11.1c-3.8-2.5-8-3.7-12.6-3.7c-8,0.2-14.1,3.3-18.3,9.3c-4.3,6-6.4,13.4-6.4,22.2
	c0,9.1,2,16.5,6.1,22.5C10.7,91.3,17,94.4,25.3,94.5z M9.9,43.9c3.3-5.5,8.5-8.3,15.4-8.5c7.1,0.2,12.3,3,15.8,8.3
	c3.4,5.3,5.1,11.7,5.1,19.2c0,7.5-1.7,13.8-5.1,19.1c-3.4,5.6-8.7,8.4-15.8,8.5c-6.7-0.1-11.8-2.9-15.3-8.3
	c-3.5-5.2-5.3-11.7-5.3-19.3C4.7,55.7,6.5,49.3,9.9,43.9z"/>
</svg>
