<?xml version="1.0" encoding="utf-8"?>
<!-- Generator: Adobe Illustrator 25.2.1, SVG Export Plug-In . SVG Version: 6.00 Build 0)  -->
<svg version="1.1" id="Layer_1" xmlns="http://www.w3.org/2000/svg" xmlns:xlink="http://www.w3.org/1999/xlink" x="0px" y="0px"
	 viewBox="0 0 100 100" style="enable-background:new 0 0 100 100;" xml:space="preserve">
<style type="text/css">
	.st0{fill:url(#SVGID_1_);}
	.st1{fill:url(#SVGID_2_);}
	.st2{fill:#FFFFFF;}
</style>
<g transform="matrix(2.07653 0 0 2.07653 142.922 62.9603)">
	
		<radialGradient id="SVGID_1_" cx="-187.9969" cy="196.3912" r="0.3707" gradientTransform="matrix(0 -267.5173 -248.8804 0 48821.7773 -50270.8672)" gradientUnits="userSpaceOnUse">
		<stop  offset="0" style="stop-color:#FFDD55"/>
		<stop  offset="0.1" style="stop-color:#FFDD55"/>
		<stop  offset="0.5" style="stop-color:#FF543E"/>
		<stop  offset="1" style="stop-color:#C837AB"/>
	</radialGradient>
	<path class="st0" d="M-44.83-30.35c-10.06,0-13.01,0.01-13.58,0.06c-2.06,0.17-3.35,0.5-4.75,1.19c-1.08,0.54-1.93,1.16-2.77,2.03
		c-1.53,1.59-2.46,3.54-2.79,5.86c-0.16,1.13-0.21,1.36-0.22,7.11c0,1.92,0,4.44,0,7.83c0,10.05,0.01,12.99,0.06,13.57
		c0.17,2.01,0.48,3.27,1.15,4.66c1.28,2.65,3.71,4.63,6.58,5.38c0.99,0.26,2.09,0.4,3.5,0.46c0.6,0.03,6.68,0.04,12.77,0.04
		s12.17-0.01,12.76-0.04c1.63-0.08,2.58-0.2,3.63-0.47c2.89-0.75,5.28-2.7,6.58-5.39c0.65-1.35,0.99-2.66,1.14-4.57
		c0.03-0.42,0.05-7.04,0.05-13.65c0-6.61-0.01-13.22-0.05-13.64c-0.15-1.94-0.48-3.24-1.16-4.61c-0.55-1.13-1.17-1.97-2.06-2.83
		c-1.59-1.52-3.54-2.45-5.87-2.78c-1.13-0.16-1.35-0.21-7.11-0.22H-44.83z"/>
	
		<radialGradient id="SVGID_2_" cx="-186.5137" cy="196.5692" r="0.3707" gradientTransform="matrix(23.4775 117.255 483.4515 -96.801 -90729.8125 40870.8633)" gradientUnits="userSpaceOnUse">
		<stop  offset="0" style="stop-color:#3771C8"/>
		<stop  offset="0.13" style="stop-color:#3771C8"/>
		<stop  offset="1" style="stop-color:#6600FF;stop-opacity:0"/>
	</radialGradient>
	<path class="st1" d="M-44.83-30.35c-10.06,0-13.01,0.01-13.58,0.06c-2.06,0.17-3.35,0.5-4.75,1.19c-1.08,0.54-1.93,1.16-2.77,2.03
		c-1.53,1.59-2.46,3.54-2.79,5.86c-0.16,1.13-0.21,1.36-0.22,7.11c0,1.92,0,4.44,0,7.83c0,10.05,0.01,12.99,0.06,13.57
		c0.17,2.01,0.48,3.27,1.15,4.66c1.28,2.65,3.71,4.63,6.58,5.38c0.99,0.26,2.09,0.4,3.5,0.46c0.6,0.03,6.68,0.04,12.77,0.04
		s12.17-0.01,12.76-0.04c1.63-0.08,2.58-0.2,3.63-0.47c2.89-0.75,5.28-2.7,6.58-5.39c0.65-1.35,0.99-2.66,1.14-4.57
		c0.03-0.42,0.05-7.04,0.05-13.65c0-6.61-0.01-13.22-0.05-13.64c-0.15-1.94-0.48-3.24-1.16-4.61c-0.55-1.13-1.17-1.97-2.06-2.83
		c-1.59-1.52-3.54-2.45-5.87-2.78c-1.13-0.16-1.35-0.21-7.11-0.22H-44.83z"/>
	<path class="st2" d="M-44.84-24.05c-4.83,0-5.44,0.02-7.34,0.11c-1.89,0.09-3.19,0.39-4.32,0.83c-1.17,0.45-2.16,1.06-3.15,2.05
		c-0.99,0.99-1.6,1.98-2.05,3.15c-0.44,1.13-0.74,2.43-0.83,4.32c-0.08,1.9-0.11,2.51-0.11,7.34s0.02,5.44,0.11,7.34
		c0.09,1.89,0.39,3.19,0.83,4.32c0.45,1.17,1.06,2.16,2.05,3.15c0.99,0.99,1.98,1.6,3.15,2.05c1.13,0.44,2.43,0.74,4.32,0.83
		c1.9,0.09,2.5,0.11,7.34,0.11c4.83,0,5.44-0.02,7.34-0.11c1.89-0.09,3.19-0.39,4.32-0.83c1.17-0.45,2.16-1.06,3.15-2.05
		c0.99-0.99,1.6-1.98,2.05-3.15c0.44-1.13,0.74-2.43,0.83-4.32c0.09-1.9,0.11-2.5,0.11-7.34s-0.02-5.44-0.11-7.34
		c-0.09-1.89-0.39-3.19-0.83-4.32c-0.46-1.17-1.06-2.16-2.05-3.15c-0.99-0.99-1.98-1.6-3.15-2.05c-1.13-0.44-2.43-0.74-4.32-0.83
		C-39.41-24.03-40.02-24.05-44.84-24.05L-44.84-24.05z M-46.44-20.84c0.47,0,1,0,1.6,0c4.75,0,5.31,0.02,7.19,0.1
		c1.74,0.08,2.68,0.37,3.3,0.61c0.83,0.32,1.42,0.71,2.04,1.33c0.62,0.62,1.01,1.22,1.33,2.05c0.24,0.63,0.53,1.57,0.61,3.3
		c0.09,1.88,0.1,2.44,0.1,7.19s-0.02,5.31-0.1,7.19c-0.08,1.74-0.37,2.68-0.61,3.3c-0.32,0.83-0.71,1.42-1.33,2.04
		c-0.62,0.62-1.21,1.01-2.04,1.33c-0.63,0.24-1.57,0.53-3.3,0.61c-1.88,0.09-2.44,0.1-7.19,0.1c-4.75,0-5.31-0.02-7.19-0.1
		c-1.74-0.08-2.68-0.37-3.3-0.61c-0.83-0.32-1.42-0.71-2.05-1.33s-1.01-1.21-1.33-2.05c-0.24-0.63-0.53-1.57-0.61-3.3
		c-0.09-1.88-0.1-2.44-0.1-7.19s0.02-5.31,0.1-7.19c0.08-1.74,0.37-2.68,0.61-3.3c0.32-0.83,0.71-1.42,1.33-2.05
		c0.62-0.62,1.22-1.01,2.05-1.33c0.63-0.24,1.57-0.53,3.3-0.61C-50.39-20.82-49.76-20.85-46.44-20.84L-46.44-20.84z M-35.35-17.89
		c-1.18,0-2.14,0.96-2.14,2.13c0,1.18,0.96,2.14,2.14,2.14s2.14-0.96,2.14-2.14S-34.17-17.89-35.35-17.89L-35.35-17.89z
		 M-44.84-15.39c-5.05,0-9.14,4.09-9.14,9.14s4.09,9.14,9.14,9.14s9.14-4.09,9.14-9.14S-39.8-15.39-44.84-15.39L-44.84-15.39z
		 M-44.84-12.19c3.28,0,5.93,2.66,5.93,5.93c0,3.28-2.66,5.93-5.93,5.93c-3.28,0-5.93-2.66-5.93-5.93
		C-50.78-9.53-48.12-12.19-44.84-12.19z"/>
</g>
</svg>
