<?xml version="1.0" encoding="utf-8"?>
<!-- Generator: Adobe Illustrator 18.1.0, SVG Export Plug-In . SVG Version: 6.00 Build 0)  -->
<!DOCTYPE svg PUBLIC "-//W3C//DTD SVG 1.1//EN" "http://www.w3.org/Graphics/SVG/1.1/DTD/svg11.dtd">
<svg version="1.1" id="Layer_1" xmlns="http://www.w3.org/2000/svg" xmlns:xlink="http://www.w3.org/1999/xlink" x="0px" y="0px"
	 viewBox="-54 56 40 40" enable-background="new -54 56 40 40" xml:space="preserve">
<g id="icomoon-ignore">
</g>
<path fill="#FFFFFF" d="M-43.8,62.1c0,2.1-1.6,3.8-4.2,3.8c-2.4,0-4-1.7-4-3.8c0-2.2,1.6-3.8,4.1-3.8S-43.9,59.9-43.8,62.1z
	 M-51.8,93.7V69h7.7v24.8C-44.1,93.7-51.8,93.7-51.8,93.7z M-39.5,76.9c0-3.1-0.1-5.7-0.2-7.9h6.7l0.4,3.4h0.2c1-1.6,3.5-4,7.6-4
	c5.1,0,8.9,3.4,8.9,10.7v14.6h-7.7V80c0-3.2-1.1-5.4-3.9-5.4c-2.1,0-3.4,1.5-3.9,2.9c-0.2,0.5-0.3,1.2-0.3,1.9v14.3h-7.7
	C-39.5,93.8-39.5,76.9-39.5,76.9z"/>
</svg>
