<?xml version="1.0" encoding="utf-8"?>
<!-- Generator: Adobe Illustrator 18.1.0, SVG Export Plug-In . SVG Version: 6.00 Build 0)  -->
<!DOCTYPE svg PUBLIC "-//W3C//DTD SVG 1.1//EN" "http://www.w3.org/Graphics/SVG/1.1/DTD/svg11.dtd">
<svg version="1.1" id="Layer_1" xmlns="http://www.w3.org/2000/svg" xmlns:xlink="http://www.w3.org/1999/xlink" x="0px" y="0px"
	 viewBox="-54 56 40 40" enable-background="new -54 56 40 40" xml:space="preserve">
<g id="icomoon-ignore">
</g>
<path fill="#E9E9E8" d="M-26.5,67.3c0-2.1,1.7-3.8,3.8-3.8s3.8,1.7,3.8,3.8s-1.7,3.8-3.8,3.8S-26.5,69.3-26.5,67.3z M-16.6,61.1
	c-3.4-3.4-9-3.4-12.4,0c-1.4,1.4-2.2,3.1-2.5,4.9l0,0l-8,12.1c-1.1,0.1-2.1,0.3-3.1,0.8l-6.2-4.8c-1.4-1.1-3.5-0.9-4.6,0.6
	s-0.9,3.5,0.6,4.6l6.1,4.8c-0.7,2.6,0,5.5,2.1,7.5c3.1,3.1,8.1,3.1,11.2,0c1.9-1.9,2.6-4.5,2.2-7l9.7-8.7c1.8-0.3,3.5-1.1,4.9-2.5
	C-13.1,70-13.1,64.5-16.6,61.1L-16.6,61.1z M-39,91.3c-2.9,0-5.3-2.4-5.3-5.3c0,0,0-0.1,0-0.1l2.6,2c0.6,0.5,1.3,0.7,2,0.7
	c1,0,1.9-0.4,2.6-1.3c1.1-1.4,0.9-3.5-0.6-4.6l-2.5-1.9c0.3-0.1,0.7-0.1,1.1-0.1c2.9,0,5.3,2.4,5.3,5.3S-36.1,91.3-39,91.3L-39,91.3
	z M-22.8,73.5c-3.5,0-6.3-2.8-6.3-6.3c0-3.5,2.8-6.3,6.3-6.3s6.3,2.8,6.3,6.3C-16.5,70.7-19.3,73.5-22.8,73.5z"/>
</svg>
