<?xml version="1.0" encoding="utf-8"?>
<!-- Generator: Adobe Illustrator 17.1.0, SVG Export Plug-In . SVG Version: 6.00 Build 0)  -->
<!DOCTYPE svg PUBLIC "-//W3C//DTD SVG 1.1//EN" "http://www.w3.org/Graphics/SVG/1.1/DTD/svg11.dtd">
<svg version="1.1" xmlns="http://www.w3.org/2000/svg" xmlns:xlink="http://www.w3.org/1999/xlink" x="0px" y="0px"
	 viewBox="0 0 440 530" enable-background="new 0 0 440 530" xml:space="preserve">
<g id="Layer_5_copy">
</g>
<g id="Layer_5">
	<polygon fill="#1A1A1A" points="440,402.988 220.008,530 0.016,402.988 0.016,148.963 220.008,21.95 440,148.963 	"/>
	<g>
		<defs>
			<polygon id="SVGID_1_" points="440,402.988 220.008,530 0.016,402.988 0.016,148.963 220.008,21.95 440,148.963 			"/>
		</defs>
		<clipPath id="SVGID_2_">
			<use xlink:href="#SVGID_1_"  overflow="visible"/>
		</clipPath>
		<g clip-path="url(#SVGID_2_)">
			<rect x="202.583" y="322.861" fill="#F8EBDE" stroke="#534741" stroke-width="5" width="47.417" height="88.667"/>
			<path fill="#939393" stroke="#4C4C4C" stroke-width="5" d="M189.564,380.861c0,0-31.643,1.246-41.564,8
				c-9.921,6.754-25.686,32.621-26,55C121.686,466.24,128,533,128,533h186.667c0,0,8.321-54.931,6.833-84.639
				s-16.437-56.609-25.33-62.5c-8.893-5.891-46.171-5-46.171-5l-17.193,30.667l-30.224-30.667H189.564z"/>
			<polygon fill="#1A1A1A" stroke="#000000" stroke-width="5" points="212,533 252,532.333 250,380.861 232.807,411.528 
				202.583,380.861 			"/>
			<path fill="#939393" stroke="#4C4C4C" stroke-width="5" d="M202.583,367.958c0.175,3.855,0.583,8.633,1,12.903
				c0,0,5.664,90.566,7.417,152.139c-9.984,0,0,0,0,0s-0.47-22.768-1.026-33.857c-5.641-56.282-32.641-85.949-32.641-85.949
				l9-12.333L176,394.528C176,394.528,183,377.194,202.583,367.958z"/>
			<path fill="#939393" stroke="#4C4C4C" stroke-width="5" d="M250.695,367.291c-0.16,3.855-0.533,8.633-0.914,12.903
				c0,0,4.822,90.566,3.219,152.139c0.333,0,0,0,0,0s0.43-22.768,0.938-33.857c5.158-56.282,19.843-85.949,19.843-85.949
				l-8.229-12.333l9.448-6.333C275,393.861,268.6,376.528,250.695,367.291z"/>
			<line fill="#939393" stroke="#4C4C4C" stroke-width="5" x1="168.443" y1="532.333" x2="158.959" y2="467.875"/>
			<line fill="#939393" stroke="#4C4C4C" stroke-width="5" x1="290.567" y1="533" x2="295.836" y2="467.875"/>
		</g>
	</g>
</g>
<g id="Layer_2">
	<path fill="#F8EBDE" stroke="#534741" stroke-width="5" d="M86.724,189.861c-30-24-42,56,12.684,73.078
		c24.41,60.047,81.129,94.922,144.316,94.922c67,0,121-100.5,121-142c0-113-14-160-132-160
		C158.718,55.861,86.724,72.861,86.724,189.861z"/>
	<path opacity="0.4" fill="#534741" d="M297.5,319.861c2.5-10.5,3-25,0-29.5s-64.5-3-71-0.5s-20.5,21.5-23.917,30
		c-37.583-3.333-98.529-84.381-98.529-84.381l-3.586,29.932c24.952,58.519,80.948,92.449,143.256,92.449
		c42.525,0,79.806-40.486,101.374-80.676C326.698,295.507,307,317.361,297.5,319.861z M287.187,319.361
		c-2.669,7.009-14.646,11.5-32.702,11.5c-18.056,0-31.394,0.718-31.394-9s18.352-22,36.408-22
		C290.196,299.861,290.447,310.802,287.187,319.361z"/>
</g>
<g id="Layer_3">
	<path fill="#231E1C" d="M138.752,176.92c23.713-5.082,70.682-10.087,101.248-10.059c1.289-3.745-0.834-9.939-5-13
		C205.98,151.582,153.157,157.453,138.752,176.92z"/>
	<path fill="#231E1C" d="M357.539,163.046c-17.239-5.082-48.902-2.301-69.096,0.559c-0.937-3.745,0.607-9.939,3.635-13
		C312.806,145.348,347.067,143.579,357.539,163.046z"/>
	<circle fill="#2E3192" stroke="#10101E" stroke-width="5" cx="199" cy="200.528" r="13"/>
	<circle fill="#FFFFFF" cx="202.583" cy="196.278" r="4.417"/>
	<circle fill="#2E3192" stroke="#10101E" stroke-width="5" cx="315.5" cy="199.278" r="13"/>
	<circle fill="#FFFFFF" cx="319.083" cy="195.028" r="4.417"/>
	<polygon fill="#4C2D27" points="243.333,318.861 268,317.528 270,304.194 265.333,313.194 	"/>
</g>
<g id="Layer_4">
	<path fill="#543D2B" stroke="#191615" stroke-width="5" stroke-miterlimit="6" d="M114.336,196.733c0,0-3.898-69.533,18.33-88.205
		s124.335-10.948,134.667-9.71c60.167-4.624,82.062,2.154,88.943,14.819c0-8.381-0.277-18.109,23.057-22.443
		c-16.333-13-34.333-13-34.333-13s8.333-13.667,24.626-18.905c-31.626-14.428-58.96-9.428-58.96-9.428s10.947-16.06,32.879-31.175
		C301.5,17.194,254,27.528,245.271,30.726c-0.051-3.923,6.395-16.199,20.067-29.823C231,7.194,189.564,30.801,189.564,30.801
		s-1.564-12.94,0-21.635c-24.23,11.696-46.368,38.825-46.368,38.825S143,29.861,146.16,17.76
		C116,36.861,99.371,67.922,99.371,67.922s-11.559-4.446-17.19-8.595c-1.22,8.898,2.371,24.006,2.371,24.006
		C75.569,86.987,69.871,90.12,65.828,94.5c8.127,4.976,14.278,10.469,14.278,10.469s-11.885,27.827-16.635,40.128
		c8.573-3.632,16.529-3.236,22.821-1.341c0,0-9.472,18.002-11.151,36.522C88.333,180.861,114.336,196.733,114.336,196.733z"/>
	<g>
		<path fill="#191615" d="M76.079,177.96l2.951,1.195c0.986,0.408,1.963,0.773,2.956,1.218l2.984,1.369
			c0.995,0.456,1.996,0.905,2.948,1.418l2.891,1.494c0.974,0.477,1.892,1.065,2.841,1.593c0.934,0.555,1.899,1.055,2.807,1.656
			l2.752,1.754c0.918,0.583,1.792,1.239,2.689,1.855c0.901,0.612,1.775,1.264,2.634,1.939c0.863,0.668,1.742,1.315,2.569,2.034
			c0.831,0.712,1.695,1.381,2.493,2.136c0.806,0.744,1.636,1.458,2.407,2.246c0.789,0.766,1.566,1.546,2.312,2.364
			c0.764,0.796,1.482,1.647,2.202,2.502c0.351,0.441,0.711,0.86,1.051,1.326c0.354,0.466,0.665,0.883,1.049,1.466l3.663,5.563
			l-6.455-1.821l-19.5-5.5l2.451-4.17l21.79,21.895l6.893,6.926l-9.372-2.764l-18.29-5.395l2.409-4.229l19.842,18.439l6.167,5.731
			l-8.296-1.437l-16.287-2.821l0,0l2.046-4.368l18.827,19.286l-22.065-15.476l-7.274-5.102l9.32,0.734l0,0l16.287,2.821
			l-2.128,4.295l-19.842-18.439l-7.787-7.237l10.196,3.007l18.29,5.395l-2.479,4.161l-21.79-21.895l-6.725-6.758l9.176,2.588
			l19.5,5.5l-2.792,3.742c-0.201-0.303-0.517-0.742-0.808-1.119c-0.285-0.393-0.618-0.779-0.927-1.169
			c-0.648-0.768-1.298-1.542-2.005-2.277c-0.684-0.751-1.405-1.475-2.14-2.188c-0.713-0.732-1.495-1.401-2.248-2.098
			c-0.743-0.706-1.562-1.336-2.342-2.007c-0.775-0.676-1.608-1.287-2.423-1.918c-0.81-0.638-1.637-1.255-2.493-1.835
			c-0.852-0.584-1.677-1.207-2.551-1.761l-2.618-1.668c-0.862-0.573-1.787-1.049-2.677-1.578c-0.906-0.503-1.778-1.065-2.712-1.521
			l-2.767-1.429c-0.917-0.496-1.854-0.914-2.789-1.342l-2.802-1.29c-0.944-0.424-1.956-0.804-2.931-1.208l-2.951-1.195
			L76.079,177.96z"/>
	</g>
</g>
</svg>
