<?xml version="1.0" encoding="utf-8"?>
<!-- Generator: Adobe Illustrator 18.1.0, SVG Export Plug-In . SVG Version: 6.00 Build 0)  -->
<!DOCTYPE svg PUBLIC "-//W3C//DTD SVG 1.1//EN" "http://www.w3.org/Graphics/SVG/1.1/DTD/svg11.dtd">
<svg version="1.1" id="Layer_1" xmlns="http://www.w3.org/2000/svg" xmlns:xlink="http://www.w3.org/1999/xlink" x="0px" y="0px"
	 viewBox="0 0 150 150" enable-background="new 0 0 150 150" xml:space="preserve">
<g id="icomoon-ignore">
</g>
<path fill="#C8DA30" d="M82.1,60.6c-5.6-0.4-12.4,0-19.9,1.1l17.6,31.9L150,74.5c-0.8-1.9-1.9-3.4-3.4-5.3
	c-7.1-8.3-22.9-15.8-40.1-19.1l0,0C89.6,46,71.6,46.4,52.9,49c-0.8,0-1.5,0.4-1.9,0.4l-6.4-11.6c-6,0.7-11.6,1.9-16.9,3.8l6,12.4
	c-9.7,3.8-17.6,9-23.3,15.4C1,80.3-2.7,93.4,1.8,106.5c0.8,2.6,2.2,5.3,3.8,7.5l70.1-19.1l-19.5-36c0.8,0,1.5-0.4,1.9-0.4
	c31.5-5.6,48.8,3,58.1,12.4l-24,5.6L82.1,60.6L82.1,60.6z M25.5,92.9c-2.2-9.7-0.4-21,13.1-28.1l10.9,22.5L25.5,92.9L25.5,92.9z"/>
</svg>
