<?xml version="1.0" encoding="utf-8"?>
<!-- Generated by IcoMoon.io -->
<!DOCTYPE svg PUBLIC "-//W3C//DTD SVG 1.1//EN" "http://www.w3.org/Graphics/SVG/1.1/DTD/svg11.dtd">
<svg version="1.1" xmlns="http://www.w3.org/2000/svg" xmlns:xlink="http://www.w3.org/1999/xlink" width="40" height="40" viewBox="0 0 40 40">
<g id="icomoon-ignore">
</g>
<path d="M3.188 10.572c0.976 0.526 14.498 7.788 15.002 8.058 0.502 0.27 1.154 0.4 1.81 0.4 0.658 0 1.31-0.13 1.812-0.402 0.504-0.27 14.024-7.532 15-8.058 0.978-0.524 1.902-2.17 0.108-2.17h-33.838c-1.794 0-0.872 1.646 0.106 2.172zM37.226 14.572c-1.11 0.58-14.734 7.702-15.414 8.058s-1.154 0.402-1.812 0.402c-0.656 0-1.13-0.046-1.81-0.402s-14.306-7.48-15.414-8.058c-0.782-0.408-0.776 0.070-0.776 0.438s0 14.67 0 14.67c0 0.84 1.118 1.92 1.984 1.92h32.034c0.868 0 1.982-1.080 1.982-1.918 0 0 0-14.302 0-14.67 0-0.37 0.008-0.848-0.774-0.44z" fill="#000000"></path>
</svg>
